<?xml version="1.0" encoding="utf-8"?>
<!-- Generator: Adobe Illustrator 26.0.3, SVG Export Plug-In . SVG Version: 6.00 Build 0)  -->
<svg version="1.1" id="圖層_1" xmlns="http://www.w3.org/2000/svg" xmlns:xlink="http://www.w3.org/1999/xlink" x="0px" y="0px"
	 viewBox="0 0 990 300" style="enable-background:new 0 0 990 300;" xml:space="preserve" fill="currentColor">
<g>
	<g>
		<path d="M22.5,187.13c0-79.66,55.65-141.29,127.37-141.29c21.72,0,33.33,10.82,43.15,10.82c5.65,0,8.93-1.5,13.99-9.32h0.59
			l2.08,79.96l-0.89,0.3c-9.52-58.32-32.44-78.16-60.41-78.16c-39.58,0-75,55.91-75,118.74c0,43.89,21.43,71.55,57.14,71.55
			c23.81,0,52.38-11.42,68.75-30.06l0.6,0.3c-21.13,37.88-60.41,62.53-97.91,62.53C52.56,272.5,22.5,239.13,22.5,187.13z"/>
		<path d="M384.97,221.4c-9.52,31.26-28.57,51.1-49.4,51.1c-13.69,0-24.4-6.31-24.4-22.55c0-2.4,0.3-4.81,0.89-7.82l16.96-97.7
			c0.3-2.1,0.3-2.71,0.3-3.61c0-4.81-2.08-6.61-5.95-6.61c-13.39,0-35.71,36.07-58.03,112.13l-3.87,23.15h-44.94l35.41-202.61
			c1.79-10.52-1.79-15.03-16.67-17.44v-0.6c21.72-3.61,49.4-12.33,67.85-21.34h0.6L270.7,216.29
			c27.38-90.48,60.12-110.32,80.35-110.32c13.99,0,24.11,7.82,24.11,24.05c0,2.4,0,4.21-0.6,7.82l-16.67,99.5
			c-0.3,2.1-0.3,2.71-0.3,3.91c0,4.21,1.49,5.41,4.46,5.41c6.55,0,14.88-9.92,22.32-25.55L384.97,221.4z"/>
		<path d="M482.58,221.09l0.6,0.3c-9.23,31.26-28.27,51.1-49.4,51.1c-13.69,0-24.11-6.31-24.11-22.55c0-2.4,0.3-4.81,0.6-7.82
			l17.86-101.01c0.3-2.1,0.3-2.71,0.3-3.91c0-4.21-1.49-5.41-4.46-5.41c-6.55,0-14.88,9.92-22.02,25.55l-0.59-0.3
			c9.23-31.26,28.27-51.1,49.1-51.1c13.69,0,24.4,6.31,24.4,22.55c0,2.4-0.3,4.81-0.89,7.82l-17.56,101.01
			c-0.59,2.1-0.59,2.71-0.59,3.91c0,4.21,1.79,5.41,4.46,5.41C466.81,246.65,475.44,236.73,482.58,221.09z M491.21,58.16
			c0,15.93-11.9,27.66-27.97,27.66c-14.88,0-25.59-10.22-25.59-24.35c0-15.93,12.2-27.66,28.57-27.66
			C480.8,33.81,491.21,44.03,491.21,58.16z"/>
		<path d="M574.83,221.09l0.59,0.3c-9.52,31.26-28.57,51.1-49.4,51.1c-13.69,0-24.4-6.31-24.4-22.55c0-2.4,0.3-4.81,0.89-7.82
			l30.65-175.26c1.79-10.52-1.79-15.03-16.67-17.44v-0.6c21.72-3.61,49.4-12.33,67.85-21.34h0.59l-36.6,209.83
			c-0.3,2.1-0.3,2.71-0.3,3.91c0,4.21,1.49,5.41,4.46,5.41C559.06,246.65,567.39,236.73,574.83,221.09z"/>
		<path d="M667.38,221.09l0.59,0.3c-9.52,31.26-28.57,51.1-49.4,51.1c-13.69,0-24.4-6.31-24.4-22.55c0-2.4,0.3-4.81,0.89-7.82
			l30.65-175.26c1.79-10.52-1.79-15.03-16.67-17.44v-0.6c21.72-3.61,49.4-12.33,67.85-21.34h0.59l-36.6,209.83
			c-0.3,2.1-0.3,2.71-0.3,3.91c0,4.21,1.49,5.41,4.46,5.41C651.61,246.65,659.94,236.73,667.38,221.09z"/>
	</g>
	<g>
		<g>
			<path d="M808.19,103.12c0,15.32-16.34,25.54-40.99,25.54h-59.7v-0.27c10.54-1.21,13.18-4.3,13.18-15.19V45.46
				c0-10.89-2.64-13.98-13.18-15.19V30h56.67c22.54,0,37.56,9.27,37.56,23.39c0,13.17-11.6,22.45-29.65,24.6
				C793.82,79.06,808.19,88.74,808.19,103.12z M756.53,31.34h-12.52v46.24h12.52c12.78,0,19.64-9.27,19.64-23.12
				S769.31,31.34,756.53,31.34z M782.62,103.12c0-14.52-8.04-24.19-22.14-24.19h-16.47v36.43c0,9.54,1.71,11.96,9.09,11.96h5.4
				C773,127.31,782.62,117.63,782.62,103.12z"/>
			<path d="M891.74,113.2c-3.29,10.35-10.68,16.8-19.11,16.8c-7.78,0-13.31-3.63-14.1-9.41v-1.34C852.99,125.7,843.9,130,834.28,130
				c-11.07,0-18.19-5.24-18.19-13.17c0-6.59,4.88-11.83,17-16.4l25.44-9.68V71.53c0-7.93-4.35-12.77-11.33-12.77
				c-1.98,0-4.09,0.54-5.93,1.21V87.8c-3.16,2.02-7.64,3.49-11.33,3.49c-5.93,0-9.88-3.09-9.88-8.87c0-15.73,19.9-26.88,38.48-26.88
				c13.58,0,22.14,8.06,22.14,20.97v38.04c0,3.49,0.79,4.7,3.29,4.7c2.64,0,5.54-2.29,7.51-6.32L891.74,113.2z M837.97,61.59
				l-0.13,0.13L837.97,61.59z M858.53,117.63V92.1l-4.35,1.75c-9.75,4.17-14.76,12.1-14.76,18.82c0,5.91,3.16,9.68,7.91,9.68
				C851.28,122.34,855.1,120.46,858.53,117.63z"/>
			<path d="M926.13,77.85v35.75c0,10.75,2.5,13.71,12.39,14.78v0.27h-44.28v-0.27c7.78-0.81,9.75-3.36,9.75-12.1V78.92
				c0-9.01-1.98-11.69-9.75-13.57v-0.27c10.28-2.96,22.4-6.59,30.44-9.41h0.26l1.19,19.22c3.43-10.48,11.07-19.35,20.43-19.35
				c6.59,0,10.94,4.17,10.94,10.62c0,2.42-0.92,4.84-2.11,6.72h-27.02C927.58,74.35,926.92,76.1,926.13,77.85z"/>
		</g>
		<g>
			<path d="M744.77,191.98v10.8c9.92,3.9,15.87,8.98,17.86,15.22c1.29,4.08,0.69,7.33-1.81,9.76c-2.59,2.34-5.48,2.39-8.67,0.13
				c-0.52-0.35-0.99-0.74-1.42-1.17c-0.09-6.07-2.07-12.66-5.95-19.77v61c-0.09,0.35-0.6,0.87-1.55,1.56
				c-0.95,0.69-2.44,1.34-4.47,1.95c-2.03,0.61-4.16,0.91-6.41,0.91h-2.85v-48.39c-5.61,8.15-12.38,15.52-20.32,22.11l-1.68-1.43
				c9.4-13.09,16.31-30.65,20.71-52.68h-17.47l-1.04-3.77h19.8v-19.38c-9.75,1.39-16.44,2.17-20.06,2.34l-0.39-1.56
				c6.99-2.6,14.34-6.05,22.07-10.34c7.72-4.29,13.74-8.21,18.05-11.77l17.34,14.7c-1.81,1.48-4.7,1.56-8.67,0.26
				c-4.92,1.56-9.28,2.73-13.07,3.51v22.24h3.11l6.73-9.89c5.09,4.51,9.1,8.32,12.04,11.45c-0.43,1.48-1.55,2.21-3.36,2.21H744.77z
				 M816.73,175.34l18.12,9.76c-0.86,1.82-2.8,2.47-5.82,1.95c-8.46,9.02-16.74,16.17-24.85,21.46
				c2.59,10.93,6.34,19.97,11.26,27.12c4.92,7.15,11.52,13.03,19.8,17.62l-0.13,1.43c-3.71,0.87-6.82,2.88-9.32,6.05
				c-2.5,3.16-4.14,7.09-4.92,11.77c-7.25-6.07-12.6-15.02-16.05-26.86c-3.45-11.84-5.78-27.29-6.99-46.37
				c-0.69,8.85-1.88,16.58-3.56,23.22c-1.68,6.63-4.32,13.12-7.89,19.45c-3.58,6.33-8.48,12.01-14.69,17.04
				c-6.21,5.03-13.89,9.54-23.04,13.53l-1.29-2.08c5.18-3.47,9.75-7.2,13.72-11.19c3.97-3.99,7.25-8.13,9.84-12.42
				c2.59-4.29,4.77-8.87,6.54-13.72c1.77-4.86,3.08-9.93,3.95-15.22c0.86-5.29,1.51-10.93,1.94-16.91
				c0.43-5.98,0.65-12.2,0.65-18.67c0-6.46,0-13.29,0-20.49c0-5.72,0-10.1,0-13.14l19.8,1.82c-0.26,2.08-1.9,3.38-4.92,3.9v2.99
				c0.69,19.08,2.2,34.77,4.53,47.09C807.97,196.58,812.41,186.87,816.73,175.34z M771.43,176.9l1.81,0.13
				c2.5,8.06,3.45,14.81,2.85,20.23c-0.6,5.42-2.33,9.56-5.18,12.42c-1.81,1.91-4.19,2.73-7.12,2.47c-2.93-0.26-4.96-1.56-6.08-3.9
				c-1.81-4.6-0.39-8.41,4.27-11.45c2.33-1.99,4.49-4.88,6.47-8.65C770.44,184.38,771.43,180.63,771.43,176.9z"/>
			<path d="M870.31,164.8l6.86-7.67l13.72,11.06c-1.04,1.22-2.68,2.08-4.92,2.6v68.29c-0.09,0.7-1.53,1.67-4.33,2.93
				c-2.81,1.26-5.37,1.89-7.7,1.89h-2.33v-12.75h-11.65v14.44c0,0.87-1.25,1.91-3.75,3.12c-2.5,1.22-5.18,1.82-8.02,1.82h-2.2
				v-91.96l14.5,6.24H870.31z M859.95,227.36h11.65v-58.92h-11.65V227.36z M960.9,229.32l0.39,23.28c4.14,1.56,6.21,3.64,6.21,6.24
				c0,3.64-2.44,6.2-7.31,7.67c-4.88,1.47-14,2.21-27.37,2.21H915.6c-7.94,0-13.39-1.02-16.37-3.06c-2.98-2.04-4.46-6.18-4.46-12.42
				v-99.38l16.44,6.24h32.1l6.99-7.41l13.85,10.8c-1.12,1.3-2.72,2.13-4.79,2.47v51.77c-0.09,0.35-0.78,0.83-2.07,1.43
				c-1.29,0.61-2.93,1.19-4.92,1.76c-1.99,0.57-3.75,0.85-5.31,0.85h-2.46v-11.58h-35.07v39.15c0,1.91,0.58,3.21,1.75,3.9
				c1.16,0.7,3.34,1.04,6.54,1.04h16.18c7.68,0,12.38-0.13,14.11-0.39c1.98-0.09,3.45-0.87,4.4-2.34
				c1.38-2.77,3.71-10.19,6.99-22.24H960.9z M920.39,164.02h-10.87v42.4h10.87V164.02z M944.59,164.02h-11v42.4h11V164.02z"/>
		</g>
	</g>
</g>
</svg>
