<svg fill="currentColor" xmlns="http://www.w3.org/2000/svg"  viewBox="0 0 48 48" ><path d="M 14.830078 4 C 13.660564 4 12.630638 4.8296896 12.384766 5.9746094 L 9.1503906 21.037109 A 1.50015 1.50015 0 0 0 9.1347656 21.111328 C 8.519479 24.869597 10.08513 28.442147 12.849609 30.951172 C 15.292194 33.168047 18.694766 34.559199 22.5 34.869141 L 22.5 41.742188 L 15.240234 43.023438 A 1.50015 1.50015 0 0 0 15.5 46 L 23.753906 46 A 1.50015 1.50015 0 0 0 24.240234 46 L 32.5 46 A 1.50015 1.50015 0 0 0 32.759766 43.023438 L 25.5 41.742188 L 25.5 34.869141 C 29.305234 34.559199 32.707806 33.168047 35.150391 30.951172 C 37.91487 28.442147 39.480521 24.869597 38.865234 21.111328 A 1.50015 1.50015 0 0 0 38.849609 21.037109 L 35.615234 5.9746094 C 35.369798 4.831717 34.338956 4 33.169922 4 L 14.830078 4 z M 15.234375 7 L 32.765625 7 L 34.699219 16 L 17.984375 16 C 17.041375 16 16.227297 16.658078 16.029297 17.580078 L 15.03125 22.21875 C 14.84925 23.43275 15.251188 24.684563 16.242188 25.851562 C 16.779187 26.482563 16.701312 27.430797 16.070312 27.966797 C 15.788312 28.206797 15.443609 28.322266 15.099609 28.322266 C 14.696474 28.322266 14.299473 28.15632 14.005859 27.841797 C 13.839551 27.650024 13.680005 27.455521 13.533203 27.255859 C 13.453113 27.146291 13.375139 27.024402 13.296875 26.90625 C 13.218052 26.787457 13.142245 26.668089 13.070312 26.546875 C 12.99194 26.414885 12.915129 26.279696 12.841797 26.138672 C 12.774164 26.00811 12.713986 25.875182 12.654297 25.742188 C 12.593872 25.608575 12.532528 25.476566 12.478516 25.335938 C 12.420596 25.183714 12.375635 25.028012 12.328125 24.873047 C 12.287724 24.743124 12.240726 24.61953 12.207031 24.484375 C 12.206674 24.482944 12.205434 24.4819 12.205078 24.480469 C 12.131924 24.182275 12.077029 23.878823 12.042969 23.572266 C 12.042541 23.568412 12.043391 23.564402 12.042969 23.560547 C 12.008945 23.249652 11.994402 22.935372 12.001953 22.617188 C 12.003441 22.551238 12.016171 22.48087 12.019531 22.414062 C 12.033369 22.146093 12.05153 21.877532 12.095703 21.605469 L 12.126953 21.462891 L 13.302734 16 L 13.300781 16 L 15.234375 7 z"/></svg>