<?xml version="1.0" encoding="utf-8"?>
<!-- Generator: Adobe Illustrator 26.1.0, SVG Export Plug-In . SVG Version: 6.00 Build 0)  -->
<svg version="1.1" id="圖層_1" xmlns="http://www.w3.org/2000/svg" xmlns:xlink="http://www.w3.org/1999/xlink" x="0px" y="0px"
	 viewBox="0 0 256 256" style="enable-background:new 0 0 256 256;" xml:space="preserve">
<style type="text/css">
	.st0{fill:#191618;}
	.st1{fill:#C2482B;}
</style>
<g>
	<g id="hfGgWW_00000072246909779071480480000005011493104412770202_">
		<g>
			<path class="st0" d="M157.89,140.31c0.39-4.59-1.61-7.79-5.42-10.29c-5-3.28-9.96-6.61-14.5-10.56
				c-8.32-7.27-10.18-16.4-7.71-26.63c1.66-6.88,3.13-13.82,5.36-20.55c1.02-3.09,2.12-6.16,2.99-9.3c0.41-1.49,1.04-1.96,2.6-1.95
				c12.68,0.08,25.37,0.08,38.05,0.06c1.23,0,1.89,0.22,2.38,1.57c4.11,11.27,8.1,22.55,9.83,34.49c1.08,7.5-0.23,14.13-5.97,19.7
				c-4.88,4.72-9.74,9.42-15.88,12.4c-5.1,2.48-7.92,6.1-7.54,11.92c0.06,0.92-0.07,1.86-0.12,2.79
				C160.14,143.25,159.16,141.62,157.89,140.31z"/>
			<path class="st0" d="M36.92,131.62c1.87-2.64,3.41-5.48,5.51-8c0.86-1.04-0.39-3.4-1.72-4.71c-0.5-0.49-1.24-0.73-2.31-1.33
				c2.38-0.58,4.85,0.27,6.11-2.06c0.07-0.12,0.49-0.12,0.73-0.08c7.53,1.22,15.21,0.5,22.74,1.77c2.88,0.48,4.32,2.94,3.35,6.05
				c-1.32,4.23,0.34,8.06,1.8,11.84c0.58,1.51,5.6,0.8,6.19-0.78c2.34-6.21,1.82-12.57,0.75-18.9c-0.27-1.59-1.26-2.99-3.37-2.64
				c-0.77,0.13-1.33-0.3-1.41-1.1c-0.07-0.72,0.51-0.99,1.08-1.21c0.54-0.21,1.17-0.33,1.59-0.69c0.47-0.41,1.62-0.66,1.02-1.59
				c-0.41-0.64-0.66-1.91-2.01-1.31c-0.95,0.43-1.68,0.08-2.02-0.85c-0.43-1.17-0.6-2.58,0.59-3.2c1.28-0.68,2.17,0.49,2.8,1.51
				c0.43,0.7,0.47,1.56,0.93,2.31c1,1.65,1.99,1.72,3.26,0.43c-0.3-0.69-0.8-0.73-1.46-0.73c-0.97-0.01-1.13-0.8-1.21-1.61
				c-0.06-0.67,0.21-1.25,0.78-1.44c0.8-0.25,1.31,0.46,1.56,1.02c0.79,1.76,1.83,2.89,3.99,2.74c0.89-0.06,1.83,0.54,1.83,1.71
				c0.01,1.96-0.01,3.93-2.37,4.91c3.54,1.77,6.04,4.36,7.49,8.1c0.64,1.66,2.82,0.59,4.21,1.23c0.68,0.31,1.69-0.02,2.42,0.49
				c0.56,0.39,1.71,0.38,1.43,1.42c-0.28,1.03-1.19,0.66-1.92,0.5c-3.04-0.63-5.77,0.17-8.56,1.4c-3.68,1.63-4.66,5.01-5.85,8.24
				c-0.8,2.18-1.56,4.1-3.92,5.15c-0.64,0.28-1.26,0.65-1.95,0.7c-5.91,0.49-11.83,0.21-17.74,0.33c-1.67,0.03-1.17-0.76-0.97-1.73
				c1.96-9.39-6.12-14.82-14.04-13.69c-2.44,0.35-4.72,2.64-6.29,5.01c-0.74,1.12-1.46,2.27-2.65,3.01
				C37.05,133.1,36.76,132.39,36.92,131.62z"/>
			<path class="st0" d="M179.51,197.66c-14.05,0.06-28.09,0.13-42.14,0.16c-0.71,0-1.93,0.48-1.96-0.88
				c-0.03-1.04,0.93-1.31,1.79-1.46c3.57-0.6,7.16-1.13,10.72-1.77c6.28-1.12,8.89-4.13,9.65-10.51c0.29-2.44,0.19-4.88,0.4-7.31
				c1.45,1.31,3.24,2.33,3.77,4.42c-0.44,6.42,2.31,11.21,7.6,12.93c2.35,0.76,4.79,1.21,7.28,1.34
				C177.85,195.37,179,196.22,179.51,197.66z"/>
			<path class="st0" d="M145.03,183.41c-0.54-1.39-0.25-2.91-0.61-4.38c-0.9-3.73-3.08-5.99-6.72-6.66
				c-4.02-0.74-7.56,0.31-10.05,3.79c-1.19,1.66-1.91,3.54-2.16,5.6c-0.16,1.3-0.66,1.96-2.26,1.95c-10.15-0.1-20.3-0.08-30.45-0.02
				c-1.43,0.01-1.72-0.38-1.84-1.79c-0.46-5.51-4.69-9.71-9.71-9.92c-5.47-0.22-9.59,3.33-9.93,8.94c-0.11,1.9-0.72,2.25-2.35,2.08
				c-1.34-0.13-2.7-0.12-4.06-0.09c-2.44,0.05-3.58-1.1-3.55-3.54c0.03-2.63,0.48-5.22,0.94-7.79c0.47-2.59,2.63-3.35,4.75-3.86
				c2.49-0.59,4.43-1.77,6.1-3.74c4.3-5.09,9.78-8.78,16.13-10.35c7.04-1.74,14.38-1.67,21.52,0.13c3.93,0.99,7.15,3.54,10.17,6.02
				c4.29,3.53,9.13,5.07,14.42,5.73c6.02,0.76,8.78,5.31,11.31,9.92c0.98,1.8,0.23,4.15,0.17,6.23
				C146.83,182.23,146.38,183.54,145.03,183.41z"/>
			<path class="st0" d="M135.58,189.74c-4.2,0.06-7.83-3.35-7.98-7.51c-0.14-3.9,3.63-7.76,7.7-7.88c4.11-0.12,7.77,3.42,7.87,7.6
				C143.26,186.2,139.87,189.68,135.58,189.74z"/>
			<path class="st0" d="M81.34,174.73c3.5-0.27,6.89,2.86,7.19,6.64c0.35,4.32-2.72,7.97-7.01,8.33c-4.18,0.35-7.99-2.74-8.31-6.75
				C72.81,178.02,75.62,175.18,81.34,174.73z"/>
			<path class="st0" d="M48.82,146.5c-5.2-0.03-9.12-3.94-9.13-9.11c-0.01-5.19,4.15-9.34,9.31-9.29c5.02,0.05,9.11,4.19,9.12,9.23
				C58.13,142.58,54.13,146.53,48.82,146.5z M55.07,137.41c-0.04-3.36-2.75-6.12-6.07-6.16c-3.36-0.04-6.27,2.88-6.24,6.26
				c0.03,3.31,2.8,6.12,6.09,6.17C52.25,143.73,55.1,140.86,55.07,137.41z"/>
			<path class="st0" d="M96.08,146.49c-4.89-0.1-8.82-4.24-8.76-9.24c0.06-5.12,4.37-9.29,9.49-9.15c5.02,0.13,9.1,4.38,8.99,9.4
				C105.71,141.83,102.71,146.56,96.08,146.49z M102.77,137.51c0.02-3.35-2.72-6.19-6.03-6.25c-3.44-0.06-6.24,2.77-6.22,6.29
				c0.02,3.39,2.77,6.15,6.13,6.14C99.97,143.67,102.75,140.87,102.77,137.51z"/>
		</g>
	</g>
	<path class="st1" d="M128,0C57.31,0,0,57.31,0,128c0,70.69,57.31,128,128,128c70.69,0,128-57.31,128-128C256,57.31,198.69,0,128,0z
		 M128,220.68c-51.19,0-92.68-41.49-92.68-92.68S76.81,35.31,128,35.31s92.69,41.5,92.69,92.69S179.19,220.68,128,220.68z"/>
	<g>
		
			<rect x="115.98" y="15.87" transform="matrix(0.7071 -0.7071 0.7071 0.7071 -53.2981 128.6759)" class="st1" width="25.4" height="225.61"/>
	</g>
</g>
</svg>
