<svg fill="currentColor" xmlns="http://www.w3.org/2000/svg"  viewBox="0 0 80 80" ><path d="M 15 10 A 1.0001 1.0001 0 0 0 14 11 L 14 19 C 14 25.277839 18.851659 30.437925 25 30.949219 L 25 38.349609 C 22.197752 39.594856 19.395701 40.840937 16.59375 42.085938 A 1.0001 1.0001 0 0 0 17 44 L 35 44 A 1.0001 1.0001 0 0 0 35.40625 42.085938 C 32.604299 40.840937 29.802248 39.594856 27 38.349609 L 27 30.949219 C 33.148341 30.437925 38 25.277839 38 19 L 38 11 A 1.0001 1.0001 0 0 0 37 10 L 15 10 z M 44 10 A 1.0001 1.0001 0 0 0 43.003906 11.097656 C 44.056901 21.764601 45.109104 32.430601 46.162109 43.097656 A 1.0001 1.0001 0 0 0 47.158203 44 L 60.841797 44 A 1.0001 1.0001 0 0 0 61.837891 43.097656 C 62.890896 32.430601 63.943099 21.764601 64.996094 11.097656 A 1.0001 1.0001 0 0 0 64 10 L 44 10 z M 16 12 L 36 12 L 36 19 L 35.199219 19.402344 L 35.041016 20.283203 L 35.652344 20.9375 L 35.804688 20.964844 C 34.902182 25.517942 30.923635 28.940432 26.113281 28.994141 A 1.0001 1.0001 0 0 0 25.984375 28.986328 A 1.0001 1.0001 0 0 0 25.875 28.994141 C 21.049618 28.934704 17.064976 25.484374 16.185547 20.90625 L 16.800781 20.597656 L 16.958984 19.716797 L 16.347656 19.0625 L 16 19 L 16 12 z M 45.103516 12 L 62.896484 12 C 62.664935 14.345749 62.434471 16.691429 62.203125 19.037109 L 62 19 L 61.199219 19.402344 L 61.041016 20.283203 L 61.652344 20.9375 L 62 21 L 62.009766 20.996094 C 61.319352 27.997381 60.628622 34.99853 59.9375 42 L 48.0625 42 C 47.371442 34.999175 46.680585 27.998689 45.990234 20.998047 L 46 21 L 46.800781 20.597656 L 46.958984 19.716797 L 46.347656 19.0625 L 46 19 L 45.802734 19.099609 C 45.569336 16.733106 45.33712 14.366573 45.103516 12 z M 20 19 L 19.199219 19.402344 L 19.041016 20.283203 L 19.652344 20.9375 L 20 21 L 20.800781 20.597656 L 20.958984 19.716797 L 20.347656 19.0625 L 20 19 z M 24 19 L 23.199219 19.402344 L 23.041016 20.283203 L 23.652344 20.9375 L 24 21 L 24.800781 20.597656 L 24.958984 19.716797 L 24.347656 19.0625 L 24 19 z M 28 19 L 27.199219 19.402344 L 27.041016 20.283203 L 27.652344 20.9375 L 28 21 L 28.800781 20.597656 L 28.958984 19.716797 L 28.347656 19.0625 L 28 19 z M 32 19 L 31.199219 19.402344 L 31.041016 20.283203 L 31.652344 20.9375 L 32 21 L 32.800781 20.597656 L 32.958984 19.716797 L 32.347656 19.0625 L 32 19 z M 50 19 L 49.199219 19.402344 L 49.041016 20.283203 L 49.652344 20.9375 L 50 21 L 50.800781 20.597656 L 50.958984 19.716797 L 50.347656 19.0625 L 50 19 z M 54 19 L 53.199219 19.402344 L 53.041016 20.283203 L 53.652344 20.9375 L 54 21 L 54.800781 20.597656 L 54.958984 19.716797 L 54.347656 19.0625 L 54 19 z M 58 19 L 57.199219 19.402344 L 57.041016 20.283203 L 57.652344 20.9375 L 58 21 L 58.800781 20.597656 L 58.958984 19.716797 L 58.347656 19.0625 L 58 19 z M 26 40.09375 C 27.42907 40.728775 28.857962 41.364744 30.287109 42 L 21.712891 42 C 23.142038 41.364744 24.57093 40.728775 26 40.09375 z M 6 48 A 1.0001 1.0001 0 1 0 6 50 L 74 50 A 1.0001 1.0001 0 1 0 74 48 L 6 48 z M 16 58 C 14.666667 58 13.552734 58.605469 12.552734 59.105469 C 11.552734 59.605469 10.666667 60 10 60 A 1.0001 1.0001 0 1 0 10 62 C 11.333333 62 12.447266 61.394531 13.447266 60.894531 C 14.447266 60.394531 15.333333 60 16 60 C 16.666667 60 17.552734 60.394531 18.552734 60.894531 C 19.552734 61.394531 20.666667 62 22 62 C 23.333333 62 24.447266 61.394531 25.447266 60.894531 C 26.447266 60.394531 27.333333 60 28 60 C 28.666667 60 29.552734 60.394531 30.552734 60.894531 C 31.552734 61.394531 32.666667 62 34 62 C 35.333333 62 36.447266 61.394531 37.447266 60.894531 C 38.447266 60.394531 39.333333 60 40 60 C 40.666667 60 41.552734 60.394531 42.552734 60.894531 C 43.552734 61.394531 44.666667 62 46 62 C 47.333333 62 48.447266 61.394531 49.447266 60.894531 C 50.447266 60.394531 51.333333 60 52 60 C 52.666667 60 53.552734 60.394531 54.552734 60.894531 C 55.552734 61.394531 56.666667 62 58 62 C 59.333333 62 60.447266 61.394531 61.447266 60.894531 C 62.447266 60.394531 63.333333 60 64 60 C 64.666667 60 65.552734 60.394531 66.552734 60.894531 C 67.552734 61.394531 68.666667 62 70 62 A 1.0001 1.0001 0 1 0 70 60 C 69.333333 60 68.447266 59.605469 67.447266 59.105469 C 66.447266 58.605469 65.333333 58 64 58 C 62.666667 58 61.552734 58.605469 60.552734 59.105469 C 59.552734 59.605469 58.666667 60 58 60 C 57.333333 60 56.447266 59.605469 55.447266 59.105469 C 54.447266 58.605469 53.333333 58 52 58 C 50.666667 58 49.552734 58.605469 48.552734 59.105469 C 47.552734 59.605469 46.666667 60 46 60 C 45.333333 60 44.447266 59.605469 43.447266 59.105469 C 42.447266 58.605469 41.333333 58 40 58 C 38.666667 58 37.552734 58.605469 36.552734 59.105469 C 35.552734 59.605469 34.666667 60 34 60 C 33.333333 60 32.447266 59.605469 31.447266 59.105469 C 30.447266 58.605469 29.333333 58 28 58 C 26.666667 58 25.552734 58.605469 24.552734 59.105469 C 23.552734 59.605469 22.666667 60 22 60 C 21.333333 60 20.447266 59.605469 19.447266 59.105469 C 18.447266 58.605469 17.333333 58 16 58 z M 6 60 A 1 1 0 0 0 6 62 A 1 1 0 0 0 6 60 z M 74 60 A 1 1 0 0 0 74 62 A 1 1 0 0 0 74 60 z M 16 66 C 14.666667 66 13.552734 66.605469 12.552734 67.105469 C 11.552734 67.605469 10.666667 68 10 68 A 1.0001 1.0001 0 1 0 10 70 C 11.333333 70 12.447266 69.394531 13.447266 68.894531 C 14.447266 68.394531 15.333333 68 16 68 C 16.666667 68 17.552734 68.394531 18.552734 68.894531 C 19.552734 69.394531 20.666667 70 22 70 C 23.333333 70 24.447266 69.394531 25.447266 68.894531 C 26.447266 68.394531 27.333333 68 28 68 C 28.666667 68 29.552734 68.394531 30.552734 68.894531 C 31.552734 69.394531 32.666667 70 34 70 C 35.333333 70 36.447266 69.394531 37.447266 68.894531 C 38.447266 68.394531 39.333333 68 40 68 C 40.666667 68 41.552734 68.394531 42.552734 68.894531 C 43.552734 69.394531 44.666667 70 46 70 C 47.333333 70 48.447266 69.394531 49.447266 68.894531 C 50.447266 68.394531 51.333333 68 52 68 C 52.666667 68 53.552734 68.394531 54.552734 68.894531 C 55.552734 69.394531 56.666667 70 58 70 C 59.333333 70 60.447266 69.394531 61.447266 68.894531 C 62.447266 68.394531 63.333333 68 64 68 C 64.666667 68 65.552734 68.394531 66.552734 68.894531 C 67.552734 69.394531 68.666667 70 70 70 A 1.0001 1.0001 0 1 0 70 68 C 69.333333 68 68.447266 67.605469 67.447266 67.105469 C 66.447266 66.605469 65.333333 66 64 66 C 62.666667 66 61.552734 66.605469 60.552734 67.105469 C 59.552734 67.605469 58.666667 68 58 68 C 57.333333 68 56.447266 67.605469 55.447266 67.105469 C 54.447266 66.605469 53.333333 66 52 66 C 50.666667 66 49.552734 66.605469 48.552734 67.105469 C 47.552734 67.605469 46.666667 68 46 68 C 45.333333 68 44.447266 67.605469 43.447266 67.105469 C 42.447266 66.605469 41.333333 66 40 66 C 38.666667 66 37.552734 66.605469 36.552734 67.105469 C 35.552734 67.605469 34.666667 68 34 68 C 33.333333 68 32.447266 67.605469 31.447266 67.105469 C 30.447266 66.605469 29.333333 66 28 66 C 26.666667 66 25.552734 66.605469 24.552734 67.105469 C 23.552734 67.605469 22.666667 68 22 68 C 21.333333 68 20.447266 67.605469 19.447266 67.105469 C 18.447266 66.605469 17.333333 66 16 66 z M 6 68 A 1 1 0 0 0 6 70 A 1 1 0 0 0 6 68 z M 74 68 A 1 1 0 0 0 74 70 A 1 1 0 0 0 74 68 z"/></svg>