<svg fill="currentColor" xmlns="http://www.w3.org/2000/svg"  viewBox="0 0 64 64" ><path d="M 28 0 C 26.35503 0 25 1.3550302 25 3 C 25 4.2931273 25.842679 5.3951322 27 5.8125 L 27 16.277344 C 21.850606 17.299918 18 21.719347 18 27.054688 L 18 29.832031 A 1.0001 1.0001 0 0 0 18 30.158203 L 18 45.832031 A 1.0001 1.0001 0 0 0 18 46.158203 L 18 61 C 18 62.64497 19.35503 64 21 64 L 43 64 C 44.64497 64 46 62.64497 46 61 L 46 46.167969 A 1.0001 1.0001 0 0 0 46 45.841797 L 46 30.167969 A 1.0001 1.0001 0 0 0 46 29.841797 L 46 27.054688 C 46 21.719347 42.149394 17.299918 37 16.277344 L 37 5.8125 C 38.157321 5.3951322 39 4.2931273 39 3 C 39 1.3550302 37.64497 0 36 0 L 28 0 z M 28 2 L 36 2 C 36.56503 2 37 2.4349698 37 3 C 37 3.5650302 36.56503 4 36 4 L 28 4 C 27.43497 4 27 3.5650302 27 3 C 27 2.4349698 27.43497 2 28 2 z M 29 6 L 35 6 L 35 17 A 1.0001 1.0001 0 0 0 35.888672 17.994141 C 40.514424 18.507812 44 22.400948 44 27.054688 L 44 29 L 20 29 L 20 27.054688 C 20 22.400948 23.485576 18.507812 28.111328 17.994141 A 1.0001 1.0001 0 0 0 29 17 L 29 6 z M 20 31 L 44 31 L 44 45 L 20 45 L 20 31 z M 25 35 A 1.0001 1.0001 0 1 0 25 37 L 32 37 A 1.0001 1.0001 0 1 0 32 35 L 25 35 z M 36 35 A 1.0001 1.0001 0 1 0 36 37 L 39 37 A 1.0001 1.0001 0 1 0 39 35 L 36 35 z M 25 39 A 1.0001 1.0001 0 1 0 25 41 L 35 41 A 1.0001 1.0001 0 1 0 35 39 L 25 39 z M 20 47 L 44 47 L 44 61 C 44 61.56503 43.56503 62 43 62 L 21 62 C 20.43497 62 20 61.56503 20 61 L 20 47 z M 21.984375 54.986328 A 1.0001 1.0001 0 0 0 21 56 L 21 58 A 1.0001 1.0001 0 1 0 23 58 L 23 56 A 1.0001 1.0001 0 0 0 21.984375 54.986328 z M 26.984375 54.986328 A 1.0001 1.0001 0 0 0 26 56 L 26 58 A 1.0001 1.0001 0 1 0 28 58 L 28 56 A 1.0001 1.0001 0 0 0 26.984375 54.986328 z M 31.984375 54.986328 A 1.0001 1.0001 0 0 0 31 56 L 31 58 A 1.0001 1.0001 0 1 0 33 58 L 33 56 A 1.0001 1.0001 0 0 0 31.984375 54.986328 z M 36.984375 54.986328 A 1.0001 1.0001 0 0 0 36 56 L 36 58 A 1.0001 1.0001 0 1 0 38 58 L 38 56 A 1.0001 1.0001 0 0 0 36.984375 54.986328 z M 41.984375 54.986328 A 1.0001 1.0001 0 0 0 41 56 L 41 58 A 1.0001 1.0001 0 1 0 43 58 L 43 56 A 1.0001 1.0001 0 0 0 41.984375 54.986328 z"/></svg>