<svg fill="currentColor" xmlns="http://www.w3.org/2000/svg"  viewBox="0 0 80 80" ><path d="M 35 5 A 1.0001 1.0001 0 0 0 34 6 L 34 12 A 1.0001 1.0001 0 0 0 35 13 L 35 22.839844 C 35 23.689132 34.557818 24.478626 33.855469 24.845703 L 33.855469 24.84375 C 29.798754 26.963298 27 31.055151 27 36 L 27 71.679688 C 27 73.501988 28.498012 75 30.320312 75 L 32 75 L 49.677734 75 C 51.500615 75 53 73.501988 53 71.679688 L 53 36 C 53 31.055151 50.201246 26.963251 46.144531 24.84375 L 46.144531 24.845703 C 45.441744 24.478351 45 23.690422 45 22.839844 L 45 13 A 1.0001 1.0001 0 0 0 46 12 L 46 6 A 1.0001 1.0001 0 0 0 45 5 L 35 5 z M 36 7 L 44 7 L 44 11 A 1.0001 1.0001 0 0 0 43 12 L 43 22.839844 C 43 24.383265 43.801537 25.876493 45.21875 26.617188 C 48.684035 28.427686 51 31.800849 51 36 L 51 45.027344 L 50.884766 45.005859 L 50.083984 45.408203 L 49.925781 46.289062 L 50.537109 46.943359 L 50.884766 47.005859 L 51 46.949219 L 51 71.679688 C 51 72.421385 50.420854 73 49.677734 73 L 32 73 L 30.320312 73 C 29.578615 73 29 72.421385 29 71.679688 L 29 40 L 29.800781 39.597656 L 29.958984 38.716797 L 29.347656 38.0625 L 29 38 L 29 36 C 29 31.800849 31.315965 28.427685 34.78125 26.617188 C 36.198901 25.876264 37 24.382555 37 22.839844 L 37 12 A 1.0001 1.0001 0 0 0 36 11 L 36 7 z M 32.962891 37.625 L 32.162109 38.027344 L 32.003906 38.908203 L 32.617188 39.5625 L 32.962891 39.625 L 33.765625 39.224609 L 33.921875 38.341797 L 33.310547 37.6875 L 32.962891 37.625 z M 36.759766 38.767578 L 35.958984 39.167969 L 35.800781 40.050781 L 36.414062 40.705078 L 36.759766 40.767578 L 37.560547 40.365234 L 37.71875 39.484375 L 37.107422 38.830078 L 36.759766 38.767578 z M 39.910156 41.212891 L 39.109375 41.613281 L 38.951172 42.496094 L 39.564453 43.150391 L 39.910156 43.212891 L 40.712891 42.810547 L 40.869141 41.929688 L 40.257812 41.275391 L 39.910156 41.212891 z M 43.125 43.576172 L 42.324219 43.976562 L 42.166016 44.859375 L 42.777344 45.513672 L 43.125 45.576172 L 43.925781 45.173828 L 44.083984 44.292969 L 43.472656 43.638672 L 43.125 43.576172 z M 46.898438 44.853516 L 46.095703 45.253906 L 45.939453 46.136719 L 46.550781 46.791016 L 46.898438 46.853516 L 47.699219 46.451172 L 47.857422 45.570312 L 47.244141 44.916016 L 46.898438 44.853516 z M 38.085938 68.1875 L 37.285156 68.589844 L 37.126953 69.472656 L 37.738281 70.126953 L 38.085938 70.1875 L 38.886719 69.787109 L 39.044922 68.904297 L 38.433594 68.25 L 38.085938 68.1875 z M 42.046875 68.191406 L 41.246094 68.59375 L 41.087891 69.474609 L 41.699219 70.130859 L 42.046875 70.191406 L 42.847656 69.791016 L 43.005859 68.908203 L 42.394531 68.253906 L 42.046875 68.191406 z M 34.521484 69.933594 L 33.720703 70.333984 L 33.5625 71.216797 L 34.175781 71.871094 L 34.521484 71.933594 L 35.322266 71.53125 L 35.480469 70.650391 L 34.869141 69.996094 L 34.521484 69.933594 z M 45.558594 70.021484 L 44.755859 70.423828 L 44.599609 71.306641 L 45.210938 71.960938 L 45.558594 72.021484 L 46.359375 71.621094 L 46.517578 70.738281 L 45.904297 70.083984 L 45.558594 70.021484 z"/></svg>