<svg fill="currentColor" xmlns="http://www.w3.org/2000/svg"  viewBox="0 0 64 64" ><path d="M 27 0 C 25.354122 0 24 1.3541217 24 3 L 24 8 A 1.0001 1.0001 0 0 0 25 9 L 26 9 L 26 11 C 26 12.623321 25.374099 13.935698 24.224609 15.078125 L 24.222656 15.078125 C 23.837007 15.462256 23.296133 15.796462 22.6875 16.107422 L 19.966797 17.148438 L 19.919922 17.171875 C 16.911273 18.703183 15.0129 21.794911 15.003906 25.169922 L 15.003906 25.171875 L 15.003906 32.939453 C 15.003783 32.959857 15 32.979568 15 33 L 15.003906 33 L 15 59 C 15 61.749516 17.250484 64 20 64 L 44 64 C 46.749516 64 49 61.749516 49 59 L 48.998047 33 L 49 33 C 49 32.990112 48.998076 32.980584 48.998047 32.970703 L 48.998047 25.171875 L 48.998047 25.169922 C 48.989047 21.794689 47.087628 18.705149 44.080078 17.173828 L 44.033203 17.148438 L 41.310547 16.105469 C 40.703724 15.795255 40.163127 15.46163 39.777344 15.078125 C 38.627019 13.935745 38 12.623321 38 11 L 38 9 L 39 9 A 1.0001 1.0001 0 0 0 40 8 L 40 3 C 40 1.3541217 38.645878 0 37 0 L 27 0 z M 27 2 L 37 2 C 37.546122 2 38 2.4538783 38 3 L 38 7 L 26 7 L 26 3 C 26 2.4538783 26.453878 2 27 2 z M 28 9 L 36 9 L 36 11 C 36 13.164679 36.911513 15.050473 38.367188 16.496094 C 38.991855 17.117073 39.721419 17.546255 40.425781 17.904297 L 40.472656 17.927734 L 43.193359 18.96875 C 45.523241 20.165162 46.991063 22.555125 46.998047 25.175781 L 46.998047 27.025391 C 45.172072 24.588254 42.270605 23 39 23 L 25 23 C 21.730375 23 18.829984 24.587543 17.003906 27.023438 L 17.003906 25.175781 L 17.003906 25.173828 C 17.011606 22.552792 18.47892 20.162495 20.810547 18.966797 L 23.527344 17.927734 L 23.574219 17.904297 C 24.277866 17.546618 25.009389 17.119008 25.634766 16.496094 C 27.089287 15.050571 28 13.164679 28 11 L 28 9 z M 25 25 L 39 25 C 43.420768 25 46.982148 28.553789 46.998047 32.970703 L 47 56 L 17 56 L 17.003906 32.939453 C 17.036652 28.537214 20.589788 25 25 25 z M 32 28 C 30.416667 28 29.101892 28.629756 28.251953 29.585938 C 27.402014 30.542119 27 31.777778 27 33 C 27 34.222222 27.402014 35.457881 28.251953 36.414062 C 29.101892 37.370244 30.416667 38 32 38 C 33.583333 38 34.898108 37.370244 35.748047 36.414062 C 36.597986 35.457881 37 34.222222 37 33 C 37 31.777778 36.597986 30.542118 35.748047 29.585938 C 34.898108 28.629756 33.583333 28 32 28 z M 32 30 C 33.083333 30 33.768559 30.370244 34.251953 30.914062 C 34.735347 31.457881 35 32.222222 35 33 C 35 33.777778 34.735347 34.542119 34.251953 35.085938 C 33.768559 35.629756 33.083333 36 32 36 C 30.916667 36 30.231441 35.629756 29.748047 35.085938 C 29.264653 34.542119 29 33.777778 29 33 C 29 32.222222 29.264653 31.457881 29.748047 30.914062 C 30.231441 30.370244 30.916667 30 32 30 z M 23 40 A 1.0001 1.0001 0 0 0 22 41 L 22 46 A 1.0001 1.0001 0 0 0 23 47 L 41 47 A 1.0001 1.0001 0 0 0 42 46 L 42 41 A 1.0001 1.0001 0 0 0 41 40 L 23 40 z M 24 42 L 40 42 L 40 45 L 24 45 L 24 42 z M 21.984375 49.986328 A 1.0001 1.0001 0 0 0 21 51 L 21 53 A 1.0001 1.0001 0 1 0 23 53 L 23 51 A 1.0001 1.0001 0 0 0 21.984375 49.986328 z M 26.984375 49.986328 A 1.0001 1.0001 0 0 0 26 51 L 26 53 A 1.0001 1.0001 0 1 0 28 53 L 28 51 A 1.0001 1.0001 0 0 0 26.984375 49.986328 z M 31.984375 49.986328 A 1.0001 1.0001 0 0 0 31 51 L 31 53 A 1.0001 1.0001 0 1 0 33 53 L 33 51 A 1.0001 1.0001 0 0 0 31.984375 49.986328 z M 36.984375 49.986328 A 1.0001 1.0001 0 0 0 36 51 L 36 53 A 1.0001 1.0001 0 1 0 38 53 L 38 51 A 1.0001 1.0001 0 0 0 36.984375 49.986328 z M 41.984375 49.986328 A 1.0001 1.0001 0 0 0 41 51 L 41 53 A 1.0001 1.0001 0 1 0 43 53 L 43 51 A 1.0001 1.0001 0 0 0 41.984375 49.986328 z M 17 58 L 47 58 L 47 59 C 47 60.668484 45.668484 62 44 62 L 20 62 C 18.331516 62 17 60.668484 17 59 L 17 58 z"/></svg>