<svg xmlns="http://www.w3.org/2000/svg" fill="currentColor" viewBox="0 0 64 64" ><path d="M 27 0 C 25.906937 0 25 0.9069372 25 2 L 25 7 C 25 8.0077582 25.773073 8.8481462 26.75 8.9746094 C 26.621653 9.50171 26.533107 9.8397695 26.365234 10.632812 C 26.081051 11.975319 25.810781 13.570071 25.810547 15.085938 C 25.809547 17.070338 25.856798 17.901112 25.892578 19.765625 C 25.910818 20.718806 25.50484 21.623471 24.78125 22.244141 L 19.246094 26.591797 A 1.0001 1.0001 0 0 0 19.214844 26.619141 C 17.054625 28.46232 16.001102 31.244 16 34 L 16 34.832031 A 1.0001 1.0001 0 0 0 16 35.158203 L 16 52.832031 A 1.0001 1.0001 0 0 0 16 53.158203 L 16 60 A 1.0001 1.0001 0 0 0 16 60.003906 C 16.007956 62.195765 17.803745 64 20 64 L 44 64 C 46.196255 64 47.992044 62.195759 48 60.003906 A 1.0001 1.0001 0 0 0 48 60 L 48 53.167969 A 1.0001 1.0001 0 0 0 48 52.841797 L 48 35.167969 A 1.0001 1.0001 0 0 0 48 34.841797 L 48 34 C 47.9989 31.244 46.947049 28.46126 44.787109 26.617188 A 1.0001 1.0001 0 0 0 44.753906 26.591797 L 39.224609 22.248047 L 39.222656 22.246094 C 38.496091 21.625062 38.089134 20.721931 38.107422 19.765625 C 38.144202 17.901597 38.190463 17.07 38.189453 15.085938 C 38.189453 13.569942 37.919071 11.975766 37.634766 10.632812 C 37.46692 9.839875 37.378343 9.5017302 37.25 8.9746094 C 38.226927 8.8481462 39 8.0077582 39 7 L 39 2 C 39 0.9069372 38.093063 0 37 0 L 27 0 z M 27 2 L 37 2 L 37 7 L 36.173828 7 A 1.0001 1.0001 0 0 0 35.160156 7.4355469 A 1.0001 1.0001 0 0 0 35.064453 8.3867188 C 35.187133 8.9976541 35.427395 9.8643643 35.677734 11.046875 C 35.947929 12.323172 36.189453 13.815933 36.189453 15.085938 C 36.19029 16.732263 36.153784 17.649445 36.121094 19 L 27.878906 19 C 27.846606 17.649881 27.809707 16.733109 27.810547 15.087891 C 27.810547 13.817342 28.052072 12.32329 28.322266 11.046875 C 28.514906 10.136826 28.657101 9.5828794 28.794922 9 L 32 9 A 1.0001 1.0001 0 1 0 32 7 L 28.173828 7 A 1.0001 1.0001 0 0 0 27.962891 6.9863281 A 1.0001 1.0001 0 0 0 27.841797 7 L 27 7 L 27 2 z M 27.632812 21 L 36.367188 21 C 36.620154 22.056597 37.083126 23.050536 37.925781 23.769531 A 1.0001 1.0001 0 0 0 37.957031 23.794922 L 43.490234 28.140625 C 45.130944 29.542648 45.999103 31.756951 46 34 L 26 34 A 1.0001 1.0001 0 1 0 26 36 L 46 36 L 46 52 L 18 52 L 18 36 L 21 36 A 1.0001 1.0001 0 1 0 21 34 L 18 34 C 18.000897 31.756951 18.869336 29.543499 20.509766 28.142578 C 20.509766 28.142578 20.511719 28.140625 20.511719 28.140625 L 26.042969 23.796875 A 1.0001 1.0001 0 0 0 26.074219 23.771484 C 26.91726 23.052166 27.38002 22.056801 27.632812 21 z M 32.001953 37 C 28.67558 36.9975 26.200349 40.249534 26.199219 43.994141 L 26.199219 44 C 26.198119 47.74453 28.671987 50.997491 31.998047 51 C 35.32442 51.0025 37.799651 47.750466 37.800781 44.005859 L 37.800781 44 C 37.801881 40.25547 35.328013 37.002509 32.001953 37 z M 32.001953 39 C 33.977893 39.0015 35.801651 41.12053 35.800781 44 L 35.800781 44.005859 C 35.799912 46.885212 33.973674 49.00149 31.998047 49 C 30.022107 48.9985 28.198349 46.87947 28.199219 44 L 28.199219 43.994141 C 28.200088 41.114788 30.026326 38.99851 32.001953 39 z M 18 54 L 46 54 L 46 59.996094 C 45.995956 61.110241 45.109745 62 44 62 L 20 62 C 18.890255 62 18.004044 61.110241 18 59.996094 L 18 54 z M 21.984375 55.986328 A 1.0001 1.0001 0 0 0 21 57 L 21 59 A 1.0001 1.0001 0 1 0 23 59 L 23 57 A 1.0001 1.0001 0 0 0 21.984375 55.986328 z M 26.984375 55.986328 A 1.0001 1.0001 0 0 0 26 57 L 26 59 A 1.0001 1.0001 0 1 0 28 59 L 28 57 A 1.0001 1.0001 0 0 0 26.984375 55.986328 z M 31.984375 55.986328 A 1.0001 1.0001 0 0 0 31 57 L 31 59 A 1.0001 1.0001 0 1 0 33 59 L 33 57 A 1.0001 1.0001 0 0 0 31.984375 55.986328 z M 36.984375 55.986328 A 1.0001 1.0001 0 0 0 36 57 L 36 59 A 1.0001 1.0001 0 1 0 38 59 L 38 57 A 1.0001 1.0001 0 0 0 36.984375 55.986328 z M 41.984375 55.986328 A 1.0001 1.0001 0 0 0 41 57 L 41 59 A 1.0001 1.0001 0 1 0 43 59 L 43 57 A 1.0001 1.0001 0 0 0 41.984375 55.986328 z"/></svg>