<svg fill="currentColor" xmlns="http://www.w3.org/2000/svg"  viewBox="0 0 64 64" ><path d="M 28 0 L 28 4.0058594 L 26.859375 4.0058594 C 26.009375 4.0058594 25.320312 4.6978281 25.320312 5.5488281 L 25.320312 13.265625 C 19.629828 14.284921 15.054632 18.507433 13.546875 24 L 13 24 C 11.34 24 10 25.309922 10 26.919922 L 10 59.070312 C 10 60.690312 11.34 62 13 62 L 52 62 C 53.66 62 55 60.690313 55 59.070312 L 55 26.919922 C 55 25.309922 53.66 24 52 24 L 51.462891 24 C 51.113278 22.769189 50.615576 21.606371 49.990234 20.523438 C 49.810234 20.203437 49.620156 19.903516 49.410156 19.603516 C 50.400156 18.471516 51 16.980375 51 15.359375 C 51 11.775375 48.08 8.8515625 44.5 8.8515625 C 43.09 8.8515625 41.770938 9.3120312 40.710938 10.082031 L 40.710938 5.5488281 C 40.710938 4.6978281 40.019922 4.0058594 39.169922 4.0058594 L 38 4.0058594 L 38 0 L 28 0 z M 30 2.0019531 L 36 2.0019531 L 36 4.0039062 L 30 4.0039062 L 30 2.0019531 z M 27.320312 6.0078125 L 28 6.0078125 L 38 6.0078125 L 38.710938 6.0078125 L 38.710938 12.416016 L 38.710938 13.496094 C 38.710938 13.911594 38.840156 14.303531 39.066406 14.628906 C 39.066739 14.629385 39.066073 14.630381 39.066406 14.630859 C 39.179375 14.793076 39.316002 14.939561 39.472656 15.0625 C 39.629688 15.185734 39.8075 15.286875 40 15.359375 C 40 15.358713 40 15.358083 40 15.357422 C 40.07 15.397422 40.140703 15.4175 40.220703 15.4375 C 40.540703 15.5175 40.859922 15.61875 41.169922 15.71875 C 43.159922 16.38975 44.910547 17.509172 46.310547 18.951172 C 46.430547 19.071172 46.540391 19.1925 46.650391 19.3125 C 47.110391 19.8135 47.520859 20.343297 47.880859 20.904297 C 48.010859 21.094297 48.13 21.293141 48.25 21.494141 C 48.705205 22.276896 49.080233 23.119114 49.359375 24 L 15.619141 24 C 17.065918 19.55835 20.85992 16.106477 25.669922 15.238281 C 26.619922 15.068281 27.320312 14.238578 27.320312 13.267578 L 27.320312 6.0078125 z M 44.5 10.853516 C 46.98 10.853516 49 12.876375 49 15.359375 C 49 16.339786 48.690007 17.249475 48.140625 17.990234 C 46.290625 15.918234 43.849844 14.376469 41.089844 13.605469 C 40.969844 13.565469 40.840937 13.526094 40.710938 13.496094 L 40.710938 12.945312 C 41.510937 11.684313 42.91 10.853516 44.5 10.853516 z M 25.099609 17.417969 C 24.970219 17.405078 24.835625 17.417734 24.703125 17.458984 C 22.528125 18.132984 20.568594 19.585828 19.183594 21.548828 C 18.864594 22.000828 18.972828 22.624359 19.423828 22.943359 C 19.599828 23.066359 19.799047 23.126953 19.998047 23.126953 C 20.312047 23.126953 20.621406 22.979125 20.816406 22.703125 C 21.947406 21.099125 23.539875 19.916094 25.296875 19.371094 C 25.823875 19.208094 26.118078 18.647141 25.955078 18.119141 C 25.832828 17.723141 25.487781 17.456641 25.099609 17.417969 z M 13 26 L 13.134766 26 C 13.133457 26.009906 13.132151 26.019378 13.130859 26.029297 L 15.150391 26.029297 C 15.151836 26.01931 15.15478 26.009974 15.15625 26 L 49.833984 26 C 49.835316 26.009984 49.838542 26.0193 49.839844 26.029297 L 51.880859 26.029297 C 51.879405 26.019393 51.876467 26.009899 51.875 26 L 52 26 C 52.53 26 52.949219 26.409922 52.949219 26.919922 L 52.949219 59.070312 C 52.949219 59.580312 52.53 60 52 60 L 13 60 C 12.47 60 12.050781 59.580312 12.050781 59.070312 L 12.050781 26.919922 C 12.050781 26.409922 12.47 26 13 26 z M 17.171875 35.037109 C 16.174875 35.037109 15.524703 36.089422 15.970703 36.982422 L 18 41.044922 L 15.970703 45.107422 C 15.524703 46.000422 16.173875 47.050781 17.171875 47.050781 C 17.679875 47.050781 18.144094 46.763594 18.371094 46.308594 L 19.5 44.048828 L 20.628906 46.308594 C 20.855906 46.763594 21.320125 47.050781 21.828125 47.050781 C 22.826125 47.050781 23.475297 46.000422 23.029297 45.107422 L 21 41.044922 L 23.029297 36.982422 C 23.475297 36.089422 22.825125 35.037109 21.828125 35.037109 C 21.320125 35.037109 20.855906 35.324297 20.628906 35.779297 L 19.5 38.039062 L 18.371094 35.779297 C 18.144094 35.324297 17.679875 35.037109 17.171875 35.037109 z M 30.171875 35.037109 C 29.174875 35.037109 28.524703 36.089422 28.970703 36.982422 L 31 41.044922 L 28.970703 45.107422 C 28.524703 46.000422 29.173875 47.050781 30.171875 47.050781 C 30.679875 47.050781 31.144094 46.763594 31.371094 46.308594 L 32.5 44.048828 L 33.628906 46.308594 C 33.855906 46.763594 34.320125 47.050781 34.828125 47.050781 C 35.826125 47.050781 36.475297 46.000422 36.029297 45.107422 L 34 41.044922 L 36.029297 36.982422 C 36.475297 36.089422 35.825125 35.037109 34.828125 35.037109 C 34.320125 35.037109 33.855906 35.324297 33.628906 35.779297 L 32.5 38.039062 L 31.371094 35.779297 C 31.144094 35.324297 30.679875 35.037109 30.171875 35.037109 z M 43.171875 35.037109 C 42.174875 35.037109 41.524703 36.089422 41.970703 36.982422 L 44 41.044922 L 41.970703 45.107422 C 41.524703 46.000422 42.173875 47.050781 43.171875 47.050781 C 43.679875 47.050781 44.144094 46.763594 44.371094 46.308594 L 45.5 44.048828 L 46.628906 46.308594 C 46.855906 46.763594 47.320125 47.050781 47.828125 47.050781 C 48.826125 47.050781 49.475297 46.000422 49.029297 45.107422 L 47 41.044922 L 49.029297 36.982422 C 49.475297 36.089422 48.825125 35.037109 47.828125 35.037109 C 47.320125 35.037109 46.855906 35.324297 46.628906 35.779297 L 45.5 38.039062 L 44.371094 35.779297 C 44.144094 35.324297 43.679875 35.037109 43.171875 35.037109 z M 15 54.058594 C 14.449 54.058594 14 54.505547 14 55.060547 L 14 57.0625 C 14 57.6175 14.449 58.0625 15 58.0625 C 15.551 58.0625 16 57.6175 16 57.0625 L 16 55.060547 C 16 54.504547 15.551 54.058594 15 54.058594 z M 20 54.058594 C 19.449 54.058594 19 54.505547 19 55.060547 L 19 57.0625 C 19 57.6175 19.449 58.0625 20 58.0625 C 20.551 58.0625 21 57.6175 21 57.0625 L 21 55.060547 C 21 54.504547 20.551 54.058594 20 54.058594 z M 25 54.058594 C 24.449 54.058594 24 54.505547 24 55.060547 L 24 57.0625 C 24 57.6175 24.449 58.0625 25 58.0625 C 25.551 58.0625 26 57.6175 26 57.0625 L 26 55.060547 C 26 54.504547 25.551 54.058594 25 54.058594 z M 30 54.058594 C 29.449 54.058594 29 54.505547 29 55.060547 L 29 57.0625 C 29 57.6175 29.449 58.0625 30 58.0625 C 30.551 58.0625 31 57.6175 31 57.0625 L 31 55.060547 C 31 54.504547 30.551 54.058594 30 54.058594 z M 35 54.058594 C 34.449 54.058594 34 54.505547 34 55.060547 L 34 57.0625 C 34 57.6175 34.449 58.0625 35 58.0625 C 35.551 58.0625 36 57.6175 36 57.0625 L 36 55.060547 C 36 54.504547 35.551 54.058594 35 54.058594 z M 40 54.058594 C 39.449 54.058594 39 54.505547 39 55.060547 L 39 57.0625 C 39 57.6175 39.449 58.0625 40 58.0625 C 40.551 58.0625 41 57.6175 41 57.0625 L 41 55.060547 C 41 54.504547 40.551 54.058594 40 54.058594 z M 45 54.058594 C 44.449 54.058594 44 54.505547 44 55.060547 L 44 57.0625 C 44 57.6175 44.449 58.0625 45 58.0625 C 45.551 58.0625 46 57.6175 46 57.0625 L 46 55.060547 C 46 54.504547 45.551 54.058594 45 54.058594 z M 50 54.058594 C 49.449 54.058594 49 54.505547 49 55.060547 L 49 57.0625 C 49 57.6175 49.449 58.0625 50 58.0625 C 50.551 58.0625 51 57.6175 51 57.0625 L 51 55.060547 C 51 54.504547 50.551 54.058594 50 54.058594 z"/></svg>