<svg fill="currentColor" xmlns="http://www.w3.org/2000/svg"  viewBox="0 0 80 80" ><path d="M 36 5 A 1.0001 1.0001 0 0 0 35 6 L 35 21.839844 C 35 22.689132 34.557818 23.478626 33.855469 23.845703 L 33.855469 23.84375 C 29.798754 25.963298 27 30.055151 27 35 L 27 71.679688 C 27 73.501988 28.498012 75 30.320312 75 L 32 75 L 49.677734 75 C 51.500615 75 53 73.501988 53 71.679688 L 53 35 C 53 30.055151 50.201246 25.963251 46.144531 23.84375 L 46.144531 23.845703 C 45.441744 23.478351 45 22.690422 45 21.839844 L 45 6 A 1.0001 1.0001 0 0 0 44 5 L 36 5 z M 37 7 L 43 7 L 43 16 L 37 16 L 37 7 z M 37 18 L 43 18 L 43 21.839844 C 43 23.383265 43.801537 24.876493 45.21875 25.617188 C 48.684035 27.427686 51 30.800849 51 35 L 51 71.679688 C 51 72.421385 50.420854 73 49.677734 73 L 32 73 L 30.320312 73 C 29.578615 73 29 72.421385 29 71.679688 L 29 35 C 29 30.800849 31.315965 27.427685 34.78125 25.617188 C 36.198901 24.876264 37 23.382555 37 21.839844 L 37 18 z M 33 39 A 1.0001 1.0001 0 0 0 32 40 L 32 60 A 1.0001 1.0001 0 0 0 33 61 L 47 61 A 1.0001 1.0001 0 0 0 48 60 L 48 40 A 1.0001 1.0001 0 0 0 47 39 L 33 39 z M 34 41 L 46 41 L 46 44 L 45.199219 44.402344 L 45.041016 45.283203 L 45.652344 45.9375 L 46 46 L 46 59 L 34 59 L 34 46 L 34.800781 45.597656 L 34.958984 44.716797 L 34.347656 44.0625 L 34 44 L 34 41 z M 38 44 L 37.199219 44.402344 L 37.041016 45.283203 L 37.652344 45.9375 L 38 46 L 38.800781 45.597656 L 38.958984 44.716797 L 38.347656 44.0625 L 38 44 z M 42 44 L 41.199219 44.402344 L 41.041016 45.283203 L 41.652344 45.9375 L 42 46 L 42.800781 45.597656 L 42.958984 44.716797 L 42.347656 44.0625 L 42 44 z M 38.085938 68.1875 L 37.285156 68.589844 L 37.126953 69.472656 L 37.738281 70.126953 L 38.085938 70.1875 L 38.886719 69.787109 L 39.044922 68.904297 L 38.433594 68.25 L 38.085938 68.1875 z M 42.046875 68.191406 L 41.246094 68.59375 L 41.087891 69.474609 L 41.699219 70.130859 L 42.046875 70.191406 L 42.847656 69.791016 L 43.005859 68.908203 L 42.394531 68.253906 L 42.046875 68.191406 z M 34.521484 69.933594 L 33.720703 70.333984 L 33.5625 71.216797 L 34.175781 71.871094 L 34.521484 71.933594 L 35.322266 71.53125 L 35.480469 70.650391 L 34.869141 69.996094 L 34.521484 69.933594 z M 45.558594 70.021484 L 44.755859 70.423828 L 44.599609 71.306641 L 45.210938 71.960938 L 45.558594 72.021484 L 46.359375 71.621094 L 46.517578 70.738281 L 45.904297 70.083984 L 45.558594 70.021484 z"/></svg>