<?xml version="1.0" encoding="utf-8"?>
<!-- Generator: Adobe Illustrator 26.1.0, SVG Export Plug-In . SVG Version: 6.00 Build 0)  -->
<svg version="1.1" id="Layer_1" xmlns="http://www.w3.org/2000/svg" xmlns:xlink="http://www.w3.org/1999/xlink" x="0px" y="0px"
	 viewBox="0 0 256 256" style="enable-background:new 0 0 256 256;" xml:space="preserve">
<style type="text/css">
	.st0{fill:#AAABB7;}
	.st1{fill:#F59F13;}
	.st2{fill:#6A6B81;}
	.st3{fill:#2A2C4B;}
	.st4{fill:#CACAD2;}
	.st5{fill:#FFFAF3;}
	.st6{fill:#151625;}
	.st7{fill:#FBD9A1;}
</style>
<g>
	<g>
		<circle class="st0" cx="128" cy="97.79" r="87.79"/>
	</g>
	<g>
		<path class="st1" d="M128,97.79l28.71,69.32c19.11-7.92,33.22-22.87,40.57-40.62L128,97.79z"/>
	</g>
	<g>
		<path class="st1" d="M128,97.79L128,97.79L99.29,28.47C80.18,36.39,66.07,51.34,58.71,69.1L128,97.79z"/>
	</g>
	<g>
		<path class="st1" d="M128,97.79l-69.32,28.71c8.01,19.33,23.21,33.53,41.23,40.81l28.44-68.67L128,97.79z"/>
	</g>
	<g>
		<path class="st1" d="M128.85,97.44l68.46-28.36c-7.83-18.89-22.54-32.89-40.02-40.31L128.85,97.44z"/>
	</g>
	<g>
		<path class="st2" d="M176.12,250H79.88c-3.87,0-7-3.13-7-7v-18.5c0-3.87,3.13-7,7-7h96.25c3.87,0,7,3.13,7,7V243
			C183.12,246.87,179.99,250,176.12,250z"/>
	</g>
	<g>
		<path class="st3" d="M128,97.79l69.29,28.7c7.35-17.75,7.95-38.3,0.03-57.41L128,97.79L128,97.79z"/>
	</g>
	<g>
		<path class="st3" d="M128,97.79L58.71,69.1c-7.35,17.75-7.95,38.3-0.03,57.41L128,97.79z"/>
	</g>
	<g>
		<path class="st3" d="M156.71,167.11l-28.36-68.46l-28.44,68.67C117.52,174.43,137.82,174.94,156.71,167.11z"/>
	</g>
	<g>
		<path class="st3" d="M99.29,28.47L128,97.79l0.85-0.35l28.44-68.67C139.41,21.18,118.61,20.47,99.29,28.47z"/>
	</g>
	<g>
		<path class="st4" d="M128,185.59c-6.75,0-13.32-0.76-19.63-2.2l-4.87,34.12H128h24.5l-4.87-34.12
			C141.32,184.82,134.75,185.59,128,185.59z"/>
	</g>
	<g>
		<circle class="st5" cx="128" cy="97.79" r="16.53"/>
	</g>
	<g>
		<path class="st6" d="M128,187.59c-49.51,0-89.79-40.28-89.79-89.79S78.49,8,128,8s89.79,40.28,89.79,89.79
			S177.51,187.59,128,187.59z M128,12c-47.31,0-85.79,38.49-85.79,85.79s38.49,85.79,85.79,85.79s85.79-38.49,85.79-85.79
			S175.31,12,128,12z"/>
	</g>
	<g>
		<path class="st6" d="M176.12,252H79.88c-4.96,0-9-4.04-9-9v-18.5c0-4.96,4.04-9,9-9h96.25c4.96,0,9,4.04,9,9V243
			C185.12,247.96,181.09,252,176.12,252z M79.88,219.5c-2.76,0-5,2.24-5,5V243c0,2.76,2.24,5,5,5h96.25c2.76,0,5-2.24,5-5v-18.5
			c0-2.76-2.24-5-5-5H79.88z"/>
	</g>
	<g>
		<path class="st6" d="M152.5,219.5h-49c-0.58,0-1.13-0.25-1.51-0.69c-0.38-0.44-0.55-1.02-0.47-1.59l4.87-34.12
			c0.08-0.55,0.39-1.05,0.85-1.37c0.46-0.32,1.03-0.42,1.58-0.3c12.52,2.86,25.84,2.86,38.36,0c0.55-0.12,1.12-0.01,1.58,0.3
			c0.46,0.32,0.77,0.81,0.85,1.37l4.87,34.12c0.08,0.57-0.09,1.15-0.47,1.59C153.63,219.25,153.08,219.5,152.5,219.5z M105.81,215.5
			h44.39l-4.24-29.71c-11.77,2.38-24.13,2.38-35.9,0L105.81,215.5z"/>
	</g>
	<g>
		<path class="st6" d="M128.1,174.84c-9.79,0-19.59-1.89-28.93-5.66c-19.34-7.82-34.38-22.7-42.33-41.9l0,0
			c-7.86-18.98-7.85-39.91,0.03-58.94c7.88-19.03,22.68-33.84,41.66-41.7c19.2-7.96,40.35-7.85,59.56,0.3
			c18.73,7.95,33.33,22.65,41.09,41.38c7.86,18.98,7.85,39.91-0.03,58.94c-7.88,19.03-22.68,33.84-41.66,41.7
			C148.02,172.88,138.07,174.84,128.1,174.84z M127.91,24.74c-9.44,0-18.88,1.86-27.86,5.58c-17.99,7.45-32.02,21.49-39.49,39.54
			c-7.47,18.04-7.49,37.89-0.03,55.88l0,0c7.54,18.2,21.79,32.31,40.13,39.72c17.89,7.23,37.53,7.16,55.29-0.2
			c17.99-7.45,32.02-21.49,39.49-39.54c7.47-18.04,7.49-37.89,0.03-55.88c-7.36-17.76-21.19-31.69-38.96-39.23
			C147.3,26.7,137.6,24.74,127.91,24.74z"/>
	</g>
	<g>
		<path class="st7" d="M122.65,7.06v22.27c0,0.17,0.04,0.34,0.12,0.49l3.48,6.62c1,1.9,3.7,1.96,4.78,0.1l3.89-6.71
			c0.09-0.16,0.14-0.35,0.14-0.53V7.06c0-0.59-0.48-1.06-1.06-1.06h-10.28C123.13,6,122.65,6.48,122.65,7.06z"/>
	</g>
	<g>
		<path class="st6" d="M128.67,39.92c-0.03,0-0.07,0-0.1,0c-1.72-0.04-3.29-1.01-4.09-2.53L121,30.76
			c-0.23-0.44-0.35-0.93-0.35-1.42V7.06c0-1.69,1.38-3.06,3.06-3.06H134c1.69,0,3.06,1.37,3.06,3.06v22.25
			c0,0.54-0.14,1.07-0.41,1.54l-3.88,6.71C131.91,39.02,130.35,39.92,128.67,39.92z M124.65,29.1l3.37,6.42
			c0.17,0.33,0.47,0.39,0.63,0.39c0.16-0.02,0.46-0.04,0.65-0.36l3.76-6.49V8h-8.41C124.65,8,124.65,29.1,124.65,29.1z
			 M133.19,28.84C133.18,28.84,133.18,28.84,133.19,28.84L133.19,28.84z M134,8L134,8L134,8z"/>
	</g>
	<g>
		<path class="st6" d="M128,116.33c-10.22,0-18.54-8.31-18.54-18.53s8.32-18.54,18.54-18.54s18.54,8.31,18.54,18.54
			S138.22,116.33,128,116.33z M128,83.26c-8.01,0-14.54,6.52-14.54,14.54s6.52,14.54,14.54,14.54s14.54-6.52,14.54-14.54
			S136.01,83.26,128,83.26z"/>
	</g>
</g>
</svg>
